<mxfile host="app.diagrams.net" modified="2024-06-08T09:38:42.527Z" agent="Mozilla/5.0 (Windows NT 10.0; Win64; x64) AppleWebKit/537.36 (KHTML, like Gecko) Chrome/125.0.0.0 Safari/537.36" version="24.5.2" etag="u12xJx8s_ZTIpFDWlRD_" type="github">
  <diagram name="Страница — 1" id="7VjMfyYCBIDdphOzAkVa">
    <mxGraphModel>
      <root>
        <mxCell id="0" />
        <mxCell id="1" parent="0" />
      </root>
    </mxGraphModel>
  </diagram>
</mxfile>
